<?xml version="1.0" standalone="no"?>
<!DOCTYPE svg PUBLIC "-//W3C//DTD SVG 20010904//EN"
 "http://www.w3.org/TR/2001/REC-SVG-20010904/DTD/svg10.dtd">
<svg version="1.0" xmlns="http://www.w3.org/2000/svg"
 width="678.000000pt" height="266.000000pt" viewBox="0 0 678.000000 266.000000"
 preserveAspectRatio="xMidYMid meet">

<g transform="translate(0.000000,266.000000) scale(0.100000,-0.100000)"
fill="#000000" stroke="none">
<path d="M1085 2635 c-220 -31 -377 -89 -546 -201 -89 -58 -226 -193 -293
-287 -182 -258 -265 -598 -236 -971 27 -345 126 -594 322 -813 195 -217 425
-325 754 -354 338 -30 762 72 997 241 l57 42 0 589 0 589 -430 0 -430 0 0
-230 0 -230 170 0 170 0 0 -215 0 -215 -52 -30 c-84 -48 -142 -63 -273 -67
-188 -7 -318 28 -447 120 -91 66 -158 147 -213 262 -52 107 -72 183 -87 328
-21 206 15 428 97 592 125 253 339 385 625 387 93 1 116 -3 199 -31 115 -39
254 -109 310 -157 23 -20 43 -35 45 -33 2 2 38 72 81 154 43 83 93 178 111
212 l34 62 -77 57 c-241 177 -552 247 -888 199z"/>
<path d="M3270 2639 c-86 -13 -217 -59 -287 -100 -83 -49 -197 -161 -247 -243
-72 -115 -91 -194 -90 -366 0 -129 3 -154 27 -225 45 -137 125 -252 230 -331
73 -54 143 -95 346 -203 261 -138 363 -218 417 -328 31 -62 42 -155 24 -207
-35 -108 -138 -156 -337 -156 -155 0 -294 46 -460 153 -40 26 -74 43 -77 39
-20 -33 -186 -457 -183 -465 6 -16 137 -88 220 -121 356 -142 817 -100 1082
98 121 90 208 208 252 340 23 71 26 98 27 211 0 158 -17 234 -80 362 -86 174
-206 275 -532 446 -336 178 -453 293 -439 434 7 63 44 132 88 164 132 94 412
54 629 -90 35 -23 66 -38 71 -34 7 7 159 433 159 446 0 3 -33 26 -72 50 -88
54 -190 92 -306 113 -107 19 -374 26 -462 13z"/>
<path d="M5706 2635 c-286 -41 -514 -151 -702 -339 -142 -143 -234 -293 -299
-489 -98 -299 -98 -693 1 -1002 127 -394 419 -674 799 -766 373 -89 879 -5
1182 197 l83 55 0 590 0 589 -430 0 -430 0 0 -230 0 -230 170 0 170 0 0 -212
0 -213 -33 -22 c-83 -57 -183 -83 -320 -83 -253 0 -445 93 -578 283 -88 126
-136 284 -146 487 -20 399 136 722 412 855 92 45 196 67 320 67 86 1 113 -3
192 -30 116 -40 234 -99 300 -151 38 -29 54 -37 61 -28 5 7 55 101 111 210 80
155 100 201 91 212 -25 31 -120 96 -200 138 -160 85 -293 117 -505 123 -96 2
-185 -2 -249 -11z"/>
</g>
</svg>
