<?xml version="1.0" standalone="no"?>
<!DOCTYPE svg PUBLIC "-//W3C//DTD SVG 20010904//EN"
 "http://www.w3.org/TR/2001/REC-SVG-20010904/DTD/svg10.dtd">
<svg version="1.0" xmlns="http://www.w3.org/2000/svg"
 width="460.000000pt" height="872.000000pt" viewBox="0 0 460.000000 872.000000"
 preserveAspectRatio="xMidYMid meet">

<g transform="translate(0.000000,872.000000) scale(0.100000,-0.100000)"
fill="#000000" stroke="none">
<path d="M1175 8709 c-439 -32 -783 -244 -993 -610 -222 -388 -228 -1009 -14
-1423 161 -313 421 -509 772 -583 106 -22 424 -25 540 -5 261 47 468 125 618
234 l52 39 0 584 0 585 -430 0 -430 0 0 -225 0 -225 170 0 170 0 0 -214 0
-215 -30 -21 c-122 -87 -352 -111 -543 -59 -114 32 -183 74 -279 170 -72 72
-94 101 -132 180 -73 151 -90 239 -90 459 1 167 3 195 27 285 73 276 239 467
472 541 118 38 263 44 374 16 102 -26 276 -108 348 -164 30 -22 55 -39 57 -37
7 8 211 404 214 415 4 16 -119 106 -209 154 -191 100 -406 138 -664 119z"/>
<path d="M2201 5655 c-284 -52 -510 -245 -587 -500 -23 -75 -26 -292 -6 -375
8 -30 34 -97 58 -147 79 -166 181 -253 474 -408 350 -185 431 -249 486 -383
28 -67 31 -146 8 -200 -39 -94 -120 -133 -295 -140 -94 -3 -130 -1 -195 16
-95 24 -204 73 -299 135 -38 25 -73 43 -76 39 -3 -4 -48 -109 -99 -235 -108
-265 -115 -227 55 -312 369 -185 883 -155 1174 69 120 93 195 198 243 341 20
60 23 89 23 210 -1 144 -7 178 -51 295 -48 129 -158 262 -293 353 -41 27 -149
89 -240 136 -191 100 -252 138 -337 208 -109 92 -148 175 -124 272 20 83 84
151 163 172 51 14 188 13 257 -2 81 -17 195 -66 283 -122 43 -27 79 -48 81
-46 1 2 38 105 81 228 l79 224 -30 24 c-47 39 -183 100 -269 122 -168 41 -415
53 -564 26z"/>
<path d="M3505 2635 c-533 -86 -906 -446 -1020 -985 -38 -184 -36 -499 6 -694
54 -258 158 -456 328 -627 98 -97 175 -153 294 -209 165 -79 322 -110 550
-110 221 0 439 41 632 117 103 41 154 68 243 130 l62 44 0 585 0 584 -435 0
-435 0 0 -225 0 -225 170 0 170 0 0 -217 0 -218 -43 -27 c-88 -55 -159 -72
-307 -72 -210 -1 -350 48 -477 167 -148 138 -220 300 -243 544 -19 204 14 421
89 578 125 263 339 398 631 399 94 1 128 -3 185 -22 102 -33 262 -114 320
-160 l51 -40 107 209 c60 114 109 212 110 216 3 17 -142 116 -238 164 -159 78
-264 101 -480 105 -124 2 -208 -1 -270 -11z"/>
</g>
</svg>
